<svg height="512" viewBox="0 0 64 64" width="512" xmlns="http://www.w3.org/2000/svg"><g id="Flat"><g id="Flat-2" data-name="Flat"><g><g><path d="m37 26a3 3 0 0 0 -2.323-2.916 2 2 0 0 0 -1.677-3.084 1.877 1.877 0 0 0 -.293.03 1.99 1.99 0 0 0 -2.737-2.737 2.822 2.822 0 0 0 .03-.293 2.99 2.99 0 0 0 -5.021-2.2 1.988 1.988 0 0 0 -3.958 0 2.982 2.982 0 0 0 -4.521.549 3 3 0 1 0 -3.28 4.539 2.725 2.725 0 0 0 -.1.336 2.99 2.99 0 0 0 -4.12 2.776 2 2 0 0 0 -1.657 3.12 1.985 1.985 0 0 0 -.3 3.625 2.988 2.988 0 1 0 4.257 4.163 2.938 2.938 0 0 0 3.23-1.308 2.907 2.907 0 0 0 2.97-.016 2.938 2.938 0 0 0 3.5-.363 2.957 2.957 0 0 0 4 0 2.96 2.96 0 0 0 4.3-.313 2.886 2.886 0 0 0 1.857-.14 2 2 0 1 0 3.153-2.268 1.984 1.984 0 0 0 .476-.617 2.993 2.993 0 0 0 2.214-2.883z" fill="#f9e109"/><path d="m36.98 26.238a2.974 2.974 0 0 1 -3.656.25 1.982 1.982 0 0 1 -2.444.169 1.993 1.993 0 0 1 -3.726.111 2.969 2.969 0 0 1 -3.451-.86 2.846 2.846 0 0 1 -2.173-.308 2.984 2.984 0 0 1 -5.352-.618c-.059 0-.117.018-.178.018a2 2 0 0 1 -1.846-1.232 3 3 0 0 1 -4.154-2.768c-.07 0-.136-.016-.2-.021a2.98 2.98 0 0 0 -.8 2.021 2 2 0 0 0 -1.657 3.12 1.985 1.985 0 0 0 -.3 3.625 2.988 2.988 0 1 0 4.257 4.163 2.938 2.938 0 0 0 3.23-1.308 2.907 2.907 0 0 0 2.97-.016 2.938 2.938 0 0 0 3.5-.363 2.957 2.957 0 0 0 4 0 2.96 2.96 0 0 0 4.3-.313 2.886 2.886 0 0 0 1.857-.14 2 2 0 1 0 3.153-2.268 1.984 1.984 0 0 0 .476-.617 2.99 2.99 0 0 0 2.194-2.645z" fill="#fcbc04"/><path d="m23 25a3 3 0 0 1 -3-3 1 1 0 0 1 2 0 1 1 0 0 0 2 0 1 1 0 0 1 2 0 3 3 0 0 1 -3 3z" fill="#fcbc04"/><path d="m14 31a3 3 0 0 1 0-6 1 1 0 0 1 0 2 1 1 0 0 0 0 2 1 1 0 0 1 0 2z" fill="#f9e109"/><circle cx="30" cy="23" fill="#fcbc04" r="1"/><circle cx="18" cy="19" fill="#fcbc04" r="1"/><path d="m32 61h-24l-2-28h28z" fill="#f89c8d"/><path d="m31.76 57a18 18 0 0 1 -17.954-16.718l-.377-5.282h20.428l.143-2h-28l2 28h24l.286-4z" fill="#f8664f"/><path d="m27.8 61h-15.6l-1.2-28h18z" fill="#57b7eb"/><path d="m13.806 40.282-.377-5.282h15.485l.086-2h-18l1.2 28h15.6l.189-4.409a18 18 0 0 1 -14.183-16.309z" fill="#4891d3"/><path d="m4 29h32v4h-32z" fill="#aae1f9"/><path d="m22.6 61h-5.2l-.4-28h6z" fill="#f89c8d"/><path d="m10 31a3.982 3.982 0 0 1 -3.445-2h-2.555v4h32v-2z" fill="#57b7eb"/><g fill="#f8664f"><path d="m22.971 35 .029-2h-6l.029 2z"/><path d="m17.238 49.63.162 11.37h5.2l.092-6.47a18.064 18.064 0 0 1 -5.454-4.9z"/></g></g><g><path d="m57 61h-16l-2-24h20z" fill="#57b7eb"/><path d="m44.671 39.055v-.055h14.162l.167-2h-20l2 24h16l.549-6.592a17.384 17.384 0 0 1 -12.878-15.353z" fill="#4891d3"/><path d="m41 33h16a2 2 0 0 1 2 2v2a0 0 0 0 1 0 0h-20a0 0 0 0 1 0 0v-2a2 2 0 0 1 2-2z" fill="#f89c8d"/><path d="m51 26v7h4v-6h6v-4h-7a3 3 0 0 0 -3 3z" fill="#aae1f9"/><circle cx="49" cy="47" fill="#f9e109" r="5"/><path d="m45.6 43.357a4.976 4.976 0 0 0 5.8 8.008 17.359 17.359 0 0 1 -5.8-8.008z" fill="#fcbc04"/><path d="m42.184 33h-1.184a2 2 0 0 0 -2 2v2h20v-2h-14a2.99 2.99 0 0 1 -2.816-2z" fill="#f8664f"/><path d="m57 25a4.969 4.969 0 0 1 -3.861-1.859 2.99 2.99 0 0 0 -2.139 2.859v7h4v-6h6v-2z" fill="#57b7eb"/></g><g><path d="m19.454 41.108a2 2 0 1 1 -3.464 2l-12.99 7.5 6 10.392 12.99-7.5a2 2 0 1 1 3.464-2l6.063-3.5-6-10.392z" fill="#f9e109"/><path d="m27.736 41.451-11.344 6.549a11.971 11.971 0 0 1 -10.284.813l-3.108 1.795 6 10.392 12.99-7.5a2 2 0 1 1 3.464-2l6.063-3.5z" fill="#fcbc04"/><path d="m8.465 54.072a1 1 0 0 1 -.5-1.866l6.929-4a1 1 0 1 1 1 1.732l-6.929 4a.992.992 0 0 1 -.5.134z" fill="#aae1f9"/><path d="m10.465 57.536a1 1 0 0 1 -.5-1.866l6.062-3.5a1 1 0 1 1 1 1.732l-6.062 3.5a.992.992 0 0 1 -.5.134z" fill="#57b7eb"/><path d="m23.187 45.572a1 1 0 0 1 -.5-1.866l.866-.5a1 1 0 0 1 1 1.732l-.866.5a1 1 0 0 1 -.5.134z" fill="#aae1f9"/><g fill="#57b7eb"><path d="m22.32 45.072a1 1 0 0 0 1.367.366l.866-.5a.987.987 0 0 0 .061-1.685l-2.417 1.4a.99.99 0 0 0 .123.419z"/><path d="m16.259 48.572a.984.984 0 0 0 -.338-.335 11.94 11.94 0 0 1 -2.945 1.075l-5.012 2.894a1 1 0 1 0 1 1.732l6.929-4a1 1 0 0 0 .366-1.366z"/></g></g><g><path d="m51 61h-12l-3-2-3 2h-12v-14h30z" fill="#c4f236"/><path d="m30 54a6 6 0 0 1 -6-6v-1h-3v14h12l3-2 3 2h12v-7z" fill="#a1d51c"/><path d="m25 51h8v6h-8z" fill="#f89c8d"/><path d="m39 51h8v6h-8z" fill="#f89c8d"/><path d="m25 54h8v3h-8z" fill="#f8664f"/><path d="m39 54h8v3h-8z" fill="#f8664f"/><path d="m39 51v6h8l-6-6z" fill="#57b7eb"/><path d="m25 51v6h8l-6-6z" fill="#57b7eb"/><g fill="#4891d3"><path d="m47 57-3-3h-5v3z"/><path d="m33 57-3-3a5.993 5.993 0 0 1 -5-2.686v5.686z"/></g></g></g></g></g></svg>